<?xml version="1.0" encoding="iso-8859-1"?>
<!-- Generator: Adobe Illustrator 19.0.0, SVG Export Plug-In . SVG Version: 6.00 Build 0)  -->
<svg version="1.1" id="Layer_1" xmlns="http://www.w3.org/2000/svg" xmlns:xlink="http://www.w3.org/1999/xlink" x="0px" y="0px"
	 viewBox="0 0 512 512" style="enable-background:new 0 0 512 512;" xml:space="preserve">
<path style="fill:#DFE3E6;" d="M200,176V48h-8v16c0,11.6-5.28,23.2-16,32s-16,20.4-16,32v32c0,4.096,1.56,8.184,4.688,11.312
	S171.904,176,176,176H200z"/>
<g>
	<path style="fill:#2D2829;" d="M464,488c0,6.144-2.344,12.28-7.032,16.968S446.144,512,440,512H72
		c-6.144,0-12.28-2.344-16.968-7.032S48,494.144,48,488v-24h416V488z"/>
	<path style="fill:#2D2829;" d="M352,224h-16v-24c0-4.272-1.664-8.288-4.688-11.312S324.272,184,320,184H192
		c-4.272,0-8.288,1.664-11.312,4.688S176,195.728,176,200v24h-16v-24c0-8.544,3.328-16.584,9.376-22.624
		c6.04-6.048,14.08-9.376,22.624-9.376h128c8.544,0,16.576,3.328,22.624,9.376c6.048,6.04,9.376,14.08,9.376,22.624V224z"/>
</g>
<path style="fill:#474545;" d="M464,464c0,6.144-2.344,12.28-7.032,16.968S446.144,488,440,488H72
	c-6.144,0-12.28-2.344-16.968-7.032S48,470.144,48,464V304h416V464z"/>
<path style="fill:#5E5C5C;" d="M464,304c0,16.376-6.248,32.76-18.744,45.248C432.76,361.752,416.376,368,400,368H112
	c-16.376,0-32.76-6.248-45.256-18.752C54.248,336.76,48,320.376,48,304v-56c0-6.144,2.344-12.28,7.032-16.968S65.856,224,72,224h368
	c6.144,0,12.28,2.344,16.968,7.032S464,241.856,464,248V304z"/>
<g>
	<path style="fill:#FFFFFF;" d="M152,336v48c0,4.096,1.56,8.184,4.688,11.312S163.904,400,168,400s8.184-1.56,11.312-4.688
		S184,388.096,184,384v-48H152z"/>
	<path style="fill:#FFFFFF;" d="M328,336v48c0,4.096,1.56,8.184,4.688,11.312S339.904,400,344,400s8.184-1.56,11.312-4.688
		S360,388.096,360,384v-48H328z"/>
</g>
<g>
	<rect x="216" y="336" style="fill:#2D2829;" width="16" height="16"/>
	<rect x="248" y="336" style="fill:#2D2829;" width="16" height="16"/>
	<rect x="280" y="336" style="fill:#2D2829;" width="16" height="16"/>
</g>
<path style="fill:#DFE3E6;" d="M192,48v144c0,4.096,1.56,8.184,4.688,11.312S203.904,208,208,208s8.184-1.56,11.312-4.688
	S224,196.096,224,192c0,4.096,1.56,8.184,4.688,11.312S235.904,208,240,208s8.184-1.56,11.312-4.688S256,196.096,256,192
	c0,4.096,1.56,8.184,4.688,11.312S267.904,208,272,208s8.184-1.56,11.312-4.688S288,196.096,288,192
	c0,4.096,1.56,8.184,4.688,11.312S299.904,208,304,208s8.184-1.56,11.312-4.688S320,196.096,320,192V48H192z"/>
<rect x="176" style="fill:#49B2D6;" width="160" height="56"/>
<rect x="192" y="16" style="fill:#474545;" width="16" height="16"/>
<g>
</g>
<g>
</g>
<g>
</g>
<g>
</g>
<g>
</g>
<g>
</g>
<g>
</g>
<g>
</g>
<g>
</g>
<g>
</g>
<g>
</g>
<g>
</g>
<g>
</g>
<g>
</g>
<g>
</g>
</svg>
